<?xml version="1.0" encoding="UTF-8"?>
<!-- Generator: Adobe Illustrator 19.2.1, SVG Export Plug-In . SVG Version: 6.00 Build 0)  -->
<svg xmlns="http://www.w3.org/2000/svg" xmlns:xlink="http://www.w3.org/1999/xlink" xmlns:dc="http://purl.org/dc/elements/1.1/" xmlns:cc="http://creativecommons.org/ns#" xmlns:rdf="http://www.w3.org/1999/02/22-rdf-syntax-ns#" version="1.1" id="DESIGNS" x="0px" y="0px" width="32px" height="32px" viewBox="0 0 32 32" style="enable-background:new 0 0 32 32;" xml:space="preserve">
<title property="dc:title">to solve</title><desc property="dc:description">An icon for "solve" from the Cubies series on to [icon]. Downloaded from http://www.toicon.com/icons/cubies_solve by 127.0.0.1 on 2017-07-10. Licensed CC-BY, see http://toicon.com/license/ for details.</desc>
<g>
	<path class="cubies_dertien" d="M29,0L3,0C1.343,0,0,1.343,0,3l0,13h32V3C32,1.343,30.657,0,29,0z" style="fill: #A4C83F;"/>
	<path class="cubies_negentien" d="M29,32H3c-1.657,0-3-1.343-3-3V16h32v13C32,30.657,30.657,32,29,32z" style="fill: #F2C99E;"/>
	<path class="cubies_veertien" d="M30,16H0V3c0-1.657,1.343-3,3-3h24c1.657,0,3,1.343,3,3V16z" style="fill: #BCD269;"/>
	<path class="cubies_twintig" d="M15,16v16h12c1.657,0,3-1.343,3-3V16h-6v-2c0.552,0,1-0.448,1-1v-1c0-0.552-0.448-1-1-1h-3   c-0.552,0-1,0.448-1,1v1c0,0.552,0.448,1,1,1v2H15z" style="fill: #F9E0BD;"/>
	<path class="cubies_zesentwintig" d="M15,16H0l0,13c0,1.657,1.343,3,3,3h12v-7h2c0,0.552,0.448,1,1,1h1c0.552,0,1-0.448,1-1v-3   c0-0.552-0.448-1-1-1h-1c-0.552,0-1,0.448-1,1h-2V16z" style="fill: #65C3AB;"/>
	<path class="cubies_tweeentwintig" d="M15,16v-6h-2c0,0.552-0.448,1-1,1h-1c-0.552,0-1-0.448-1-1V7c0-0.552,0.448-1,1-1h1   c0.552,0,1,0.448,1,1h2V0H3C1.343,0,0,1.343,0,3v13h6v2c-0.552,0-1,0.448-1,1v1c0,0.552,0.448,1,1,1h3c0.552,0,1-0.448,1-1v-1   c0-0.552-0.448-1-1-1v-2H15z" style="fill: #D97360;"/>
</g>
<metadata><work rdf:about=""><format>image/svg+xml</format><type rdf:resource="http://purl.org/dc/dcmitype/StillImage"/><license rdf:resource="http://creativecommons.org/licenses/by/4.0/"/><attributionname>Shannon E Thomas</attributionname><attributionurl>http://www.toicon.com/icons/cubies_solve</attributionurl></work></metadata></svg>
